# MagicaVoxel @ Ephtracy

# group
o 

# material
mtllib revolver.mtl
usemtl palette

# normals
vn -1 0 0
vn 1 0 0
vn 0 0 1
vn 0 0 -1
vn 0 -1 0
vn 0 1 0

# texcoords
vt 0.537109 0.5
vt 0.876953 0.5
vt 0.974609 0.5
vt 0.978516 0.5
vt 0.982422 0.5

# verts
v -0.1 0.8 0.1
v -0.1 0.8 -0.1
v -0.1 0.9 0.1
v -0.1 0.9 -0.1
v 1.49012e-08 0.5 -0.3
v 1.49012e-08 0.5 -0.5
v 1.49012e-08 0.7 0.1
v 1.49012e-08 0.7 -0.2
v 1.49012e-08 0.8 0.2
v 1.49012e-08 0.8 0.1
v 1.49012e-08 0.8 -0.1
v 1.49012e-08 0.8 -0.2
v 1.49012e-08 0.8 -0.3
v 1.49012e-08 0.9 0.6
v 1.49012e-08 0.9 0.2
v 1.49012e-08 0.9 0.1
v 1.49012e-08 0.9 -0.1
v 1.49012e-08 0.9 -0.3
v 1.49012e-08 0.9 -0.4
v 1.49012e-08 0.9 -0.5
v 1.49012e-08 1 0.6
v 1.49012e-08 1 0.5
v 1.49012e-08 1 0.1
v 1.49012e-08 1 -0.2
v 1.49012e-08 1 -0.3
v 1.49012e-08 1 -0.4
v 1.49012e-08 1.1 0.6
v 1.49012e-08 1.1 0.5
v 0.1 0.5 -0.3
v 0.1 0.5 -0.5
v 0.1 0.7 0.1
v 0.1 0.7 -0.2
v 0.1 0.8 0.2
v 0.1 0.8 0.1
v 0.1 0.8 -0.1
v 0.1 0.8 -0.2
v 0.1 0.8 -0.3
v 0.1 0.9 0.6
v 0.1 0.9 0.2
v 0.1 0.9 0.1
v 0.1 0.9 -0.1
v 0.1 0.9 -0.3
v 0.1 0.9 -0.4
v 0.1 0.9 -0.5
v 0.1 1 0.6
v 0.1 1 0.5
v 0.1 1 0.1
v 0.1 1 -0.2
v 0.1 1 -0.3
v 0.1 1 -0.4
v 0.1 1.1 0.6
v 0.1 1.1 0.5
v 0.2 0.8 0.1
v 0.2 0.8 -0.1
v 0.2 0.9 0.1
v 0.2 0.9 -0.1
v 1.49012e-08 0.9 0.6
v 1.49012e-08 1 0.6
v 1.49012e-08 1.1 0.6
v 0.1 0.9 0.6
v 0.1 1 0.6
v 0.1 1.1 0.6
v 1.49012e-08 0.8 0.2
v 1.49012e-08 0.9 0.2
v 0.1 0.8 0.2
v 0.1 0.9 0.2
v -0.1 0.8 0.1
v -0.1 0.9 0.1
v 1.49012e-08 0.7 0.1
v 1.49012e-08 0.8 0.1
v 1.49012e-08 0.9 0.1
v 0.1 0.7 0.1
v 0.1 0.8 0.1
v 0.1 0.9 0.1
v 0.2 0.8 0.1
v 0.2 0.9 0.1
v 1.49012e-08 0.5 -0.3
v 1.49012e-08 0.8 -0.3
v 0.1 0.5 -0.3
v 0.1 0.8 -0.3
v 1.49012e-08 1 0.5
v 1.49012e-08 1.1 0.5
v 0.1 1 0.5
v 0.1 1.1 0.5
v -0.1 0.8 -0.1
v -0.1 0.9 -0.1
v 1.49012e-08 0.8 -0.1
v 1.49012e-08 0.9 -0.1
v 0.1 0.8 -0.1
v 0.1 0.9 -0.1
v 0.2 0.8 -0.1
v 0.2 0.9 -0.1
v 1.49012e-08 0.7 -0.2
v 1.49012e-08 0.8 -0.2
v 0.1 0.7 -0.2
v 0.1 0.8 -0.2
v 1.49012e-08 0.9 -0.4
v 1.49012e-08 1 -0.4
v 0.1 0.9 -0.4
v 0.1 1 -0.4
v 1.49012e-08 0.5 -0.5
v 1.49012e-08 0.9 -0.5
v 0.1 0.5 -0.5
v 0.1 0.9 -0.5
v 1.49012e-08 0.5 -0.3
v 0.1 0.5 -0.3
v 1.49012e-08 0.5 -0.5
v 0.1 0.5 -0.5
v 1.49012e-08 0.7 0.1
v 0.1 0.7 0.1
v 1.49012e-08 0.7 -0.2
v 0.1 0.7 -0.2
v 1.49012e-08 0.8 0.2
v 0.1 0.8 0.2
v -0.1 0.8 0.1
v 1.49012e-08 0.8 0.1
v 0.1 0.8 0.1
v 0.2 0.8 0.1
v -0.1 0.8 -0.1
v 1.49012e-08 0.8 -0.1
v 0.1 0.8 -0.1
v 0.2 0.8 -0.1
v 1.49012e-08 0.8 -0.2
v 0.1 0.8 -0.2
v 1.49012e-08 0.8 -0.3
v 0.1 0.8 -0.3
v 1.49012e-08 0.9 0.6
v 0.1 0.9 0.6
v 1.49012e-08 0.9 0.2
v 0.1 0.9 0.2
v -0.1 0.9 0.1
v 1.49012e-08 0.9 0.1
v 0.1 0.9 0.1
v 0.2 0.9 0.1
v -0.1 0.9 -0.1
v 1.49012e-08 0.9 -0.1
v 0.1 0.9 -0.1
v 0.2 0.9 -0.1
v 1.49012e-08 0.9 -0.4
v 0.1 0.9 -0.4
v 1.49012e-08 0.9 -0.5
v 0.1 0.9 -0.5
v 1.49012e-08 1 0.5
v 0.1 1 0.5
v 1.49012e-08 1 0.1
v 0.1 1 0.1
v 1.49012e-08 1 -0.2
v 0.1 1 -0.2
v 1.49012e-08 1 -0.3
v 0.1 1 -0.3
v 1.49012e-08 1 -0.4
v 0.1 1 -0.4
v 1.49012e-08 1.1 0.6
v 0.1 1.1 0.6
v 1.49012e-08 1.1 0.5
v 0.1 1.1 0.5

# faces
f 3/3/1 2/3/1 1/3/1
f 4/3/1 2/3/1 3/3/1
f 10/2/1 8/2/1 7/2/1
f 11/2/1 8/2/1 10/2/1
f 12/2/1 8/2/1 11/2/1
f 13/1/1 6/1/1 5/1/1
f 15/2/1 10/2/1 9/2/1
f 16/2/1 10/2/1 15/2/1
f 17/2/1 12/2/1 11/2/1
f 18/1/1 6/1/1 13/1/1
f 18/1/1 13/1/1 12/1/1
f 19/1/1 6/1/1 18/1/1
f 20/1/1 6/1/1 19/1/1
f 21/3/1 16/3/1 15/3/1
f 21/3/1 15/3/1 14/3/1
f 22/3/1 16/3/1 21/3/1
f 23/2/1 17/2/1 16/2/1
f 23/3/1 16/3/1 22/3/1
f 24/2/1 12/2/1 17/2/1
f 24/2/1 17/2/1 23/2/1
f 24/1/1 18/1/1 12/1/1
f 25/5/1 19/5/1 18/5/1
f 25/1/1 18/1/1 24/1/1
f 26/5/1 19/5/1 25/5/1
f 27/4/1 22/4/1 21/4/1
f 28/4/1 22/4/1 27/4/1
f 31/2/2 32/2/2 34/2/2
f 34/2/2 32/2/2 35/2/2
f 35/2/2 32/2/2 36/2/2
f 29/1/2 30/1/2 37/1/2
f 33/2/2 34/2/2 39/2/2
f 39/2/2 34/2/2 40/2/2
f 35/2/2 36/2/2 41/2/2
f 37/1/2 30/1/2 42/1/2
f 36/1/2 37/1/2 42/1/2
f 42/1/2 30/1/2 43/1/2
f 43/1/2 30/1/2 44/1/2
f 39/3/2 40/3/2 45/3/2
f 38/3/2 39/3/2 45/3/2
f 45/3/2 40/3/2 46/3/2
f 40/2/2 41/2/2 47/2/2
f 46/3/2 40/3/2 47/3/2
f 41/2/2 36/2/2 48/2/2
f 47/2/2 41/2/2 48/2/2
f 36/1/2 42/1/2 48/1/2
f 42/5/2 43/5/2 49/5/2
f 48/1/2 42/1/2 49/1/2
f 49/5/2 43/5/2 50/5/2
f 45/4/2 46/4/2 51/4/2
f 51/4/2 46/4/2 52/4/2
f 53/3/2 54/3/2 55/3/2
f 55/3/2 54/3/2 56/3/2
f 60/3/3 58/3/3 57/3/3
f 61/4/3 59/4/3 58/4/3
f 61/3/3 58/3/3 60/3/3
f 62/4/3 59/4/3 61/4/3
f 65/2/3 64/2/3 63/2/3
f 66/2/3 64/2/3 65/2/3
f 70/3/3 68/3/3 67/3/3
f 71/3/3 68/3/3 70/3/3
f 72/2/3 70/2/3 69/2/3
f 73/2/3 70/2/3 72/2/3
f 75/3/3 74/3/3 73/3/3
f 76/3/3 74/3/3 75/3/3
f 79/1/3 78/1/3 77/1/3
f 80/1/3 78/1/3 79/1/3
f 81/4/4 82/4/4 83/4/4
f 83/4/4 82/4/4 84/4/4
f 85/3/4 86/3/4 87/3/4
f 87/3/4 86/3/4 88/3/4
f 89/3/4 90/3/4 91/3/4
f 91/3/4 90/3/4 92/3/4
f 93/2/4 94/2/4 95/2/4
f 95/2/4 94/2/4 96/2/4
f 97/5/4 98/5/4 99/5/4
f 99/5/4 98/5/4 100/5/4
f 101/1/4 102/1/4 103/1/4
f 103/1/4 102/1/4 104/1/4
f 107/1/5 106/1/5 105/1/5
f 108/1/5 106/1/5 107/1/5
f 111/2/5 110/2/5 109/2/5
f 112/2/5 110/2/5 111/2/5
f 116/2/5 114/2/5 113/2/5
f 117/2/5 114/2/5 116/2/5
f 119/3/5 116/3/5 115/3/5
f 120/3/5 116/3/5 119/3/5
f 121/3/5 118/3/5 117/3/5
f 122/3/5 118/3/5 121/3/5
f 125/1/5 124/1/5 123/1/5
f 126/1/5 124/1/5 125/1/5
f 129/3/5 128/3/5 127/3/5
f 130/3/5 128/3/5 129/3/5
f 131/3/6 132/3/6 135/3/6
f 135/3/6 132/3/6 136/3/6
f 133/3/6 134/3/6 137/3/6
f 137/3/6 134/3/6 138/3/6
f 139/1/6 140/1/6 141/1/6
f 141/1/6 140/1/6 142/1/6
f 143/3/6 144/3/6 145/3/6
f 145/3/6 144/3/6 146/3/6
f 145/2/6 146/2/6 147/2/6
f 147/2/6 146/2/6 148/2/6
f 147/1/6 148/1/6 149/1/6
f 149/1/6 148/1/6 150/1/6
f 149/5/6 150/5/6 151/5/6
f 151/5/6 150/5/6 152/5/6
f 153/4/6 154/4/6 155/4/6
f 155/4/6 154/4/6 156/4/6
